<?xml version="1.0" encoding="utf-8"?>
<!-- Generator: Adobe Illustrator 16.0.3, SVG Export Plug-In . SVG Version: 6.00 Build 0)  -->
<!DOCTYPE svg PUBLIC "-//W3C//DTD SVG 1.1//EN" "http://www.w3.org/Graphics/SVG/1.1/DTD/svg11.dtd">
<svg version="1.1" id="Capa_1" xmlns:ev="http://www.w3.org/2001/xml-events"
	 xmlns="http://www.w3.org/2000/svg" xmlns:xlink="http://www.w3.org/1999/xlink" x="0px" y="0px" width="5120px"
	 height="2756.599px" viewBox="0 0 5120 2756.599" enable-background="new 0 0 5120 2756.599" xml:space="preserve">
<title>grid graph paper azure 5120x2880 #4ba3f1 #1e88e5 0° 2px 80px</title>
<desc>grid graph paper azure 5120x2880 #4ba3f1 #1e88e5 0° 2px 80px</desc>
<rect x="0" y="0" fill="#4BA3F1" width="5120" height="2880"/>
<path opacity="0.01" fill="#FFFFFF" enable-background="new    " d="M5,5h2v1H6v1h1v1H5V5z M4,3h4v1h1v5H8v1H4V9H3V4h1v5h4V4H4V3z
	 M11,4h1v2h1V4h1v2h-1v1h1v2h-1V7h-1v2h-1V7h1V6h-1V4z M15,4h5v5h-1V5h-1v4h-1V5h-1v4h-1V4z M21,4h3l-1,1h-1v3h1V5l1-1v5h-2v2h-1V4z
	 M25,2h1v6h1v1h-2V2z M28,4h3l-1,1h-1v1h1V5l1-1v3h-2v1h2v1h-3V4z M32,8h1v1h-1V8z M34,4h3v1h-2v3h2v1h-3V4z M38,4h3v5h-3l1-1h1V5
	h-1v3l-1,1V4z M42,4h5v5h-1V5h-1v4h-1V5h-1v4h-1V4z"/>
<text transform="matrix(1 0 0 1 4.0002 2874.0002)" opacity="0.01" fill="#FFFFFF" enable-background="new    " font-family="'Verdana'" font-size="20">© xmple.com</text>
<a xlink:href="https://www.xmple.com" >
	
		<text transform="matrix(1 0 0 1 4999.5605 22.0002)" opacity="0.01" fill="#FFFFFF" enable-background="new    " font-family="'Verdana'" font-size="20">xmple.com</text>
</a>
<a xlink:href="https://www.xmple.com" >
	<g id="a" transform="translate(4585.177642112,2778.400008) scale(0.0812799936)" opacity="0.35">
		<path fill="#FFFFFF" stroke="#555555" stroke-width="20" d="M549.002,679c8.999,0,16.004,2.992,21.002,8.999
			c6.007,5.995,8.999,13,8.999,21.999c0,8.002-2.992,14.995-8.999,21.999c-25.003,21.002-52,36.994-82.001,48.996
			c-30.001,11.006-61.996,17.001-95.001,17.001c-74.996,0-138.999-26-191.996-79.995c-53.009-53.009-79.994-117-79.994-192.008
			c0-74.996,26.985-138.999,79.994-191.996c52.997-52.997,117-79.995,191.996-79.995c33.005,0,65,5.995,95.001,16.989
			c30.001,11.006,57.995,28.006,82.001,49.008c6.993,5.995,11.006,13.997,11.006,22.996s-3.004,16.004-9.011,21.999
			c-5.995,6.007-13,8.999-21.002,8.999c-6.993,0-13.985-1.994-18.995-6.993c-39-34.002-85.99-52-138.999-52
			c-58.993,0-107.989,20.99-148.995,61.996s-62.008,91-62.008,148.995c0,59.005,21.002,108.001,62.008,149.007
			c41.006,40.995,91,61.996,148.995,61.996c25.003,0,50.006-4.998,73.999-13.997c24.006-8.999,44.995-21.999,64.003-38.003
			c4.998-4.001,11.006-5.995,19.007-5.995H549.002z M783.002,525.991c0,108.001-37.991,201.008-115.006,277.001
			c-75.994,76.006-169,114.008-275.992,114.008c-108.001,0-199.998-38.003-277.001-114.008
			c-76.006-77.003-115.006-169-115.006-277.001c0-107.989,38.015-199.998,115.006-275.992
			c76.006-77.003,168.003-115.006,277.001-115.006c108.001,0,199.998,38.003,275.992,115.006
			C745.011,325.993,783.002,418.002,783.002,525.991z M392.004,176c-95.998,0-179.008,34.002-247.997,102.991
			c-68.004,68.004-102.006,150.005-102.006,247c0,97.007,34.002,179.008,102.006,248.009
			c68.989,67.992,151.999,102.991,247.997,102.991s177.999-34.002,247-102.991C708.005,705,742.007,622.999,742.007,527
			c0-97.007-34.002-179.008-103.003-247c-68.004-69.001-150.005-103.003-247-103.003V176z M1329.002,542.992l-186.001-222.995
			c-4.998-4.998-7.005-12.003-7.005-20.005c0-8.002,3.004-16.004,9.011-21.002c5.995-5.995,13-8.999,21.987-8.999
			c8.002,0,15.006,3.004,21.002,8.999l181.015,216.002l179.994-216.002c7.005-5.995,13.997-8.999,21.999-8.999
			c8.999,0,16.004,3.004,21.999,8.999c5.995,6.007,8.999,13,8.999,22.011c0,7.99-3.004,14.994-6.993,19.993l-186.998,222.995
			l187.984,225.001c4.013,6.007,6.007,12.003,6.007,19.007c0,8.999-3.004,15.992-8.999,21.999c-5.995,5.995-13,8.999-21.999,8.999
			c-8.002,0-14.994-3.004-19.993-8.999l-182-216.999l-182,216.999c-5.01,5.995-12.015,8.999-20.017,8.999
			c-8.987,0-15.992-3.004-21.987-8.999c-6.007-6.007-9.011-13-9.011-21.002c0-7.005,2.006-13,6.007-17.998L1329.002,542.992z
			 M1741.001,787.001c0,8.999-2.992,15.992-8.999,21.999c-6.007,5.995-13,8.999-21.999,8.999c-8.002,0-15.007-3.004-21.002-8.999
			c-5.995-6.007-8.999-13-8.999-21.002V301.999c0-8.002,3.004-16.004,8.999-21.002c5.995-5.995,13-8.999,21.002-8.999
			c8.999,0,15.992,3.004,21.999,8.999c6.007,5.995,8.999,13,8.999,21.999v32.993C1790.01,293.998,1841,272.996,1893,272.996
			c58.007,0,108.001,21.002,150.005,62.994c9.996,10.008,20.99,23.008,31.995,38.003c11.006-14.994,22.011-27.994,32.008-38.003
			c42.004-41.992,91.997-61.996,149.993-61.996c59.005,0,108.998,21.002,151.002,63.006c40.994,40.994,61.996,91.997,61.996,149.993
			V790.99c0,9.011-3.004,16.004-8.987,22.011c-6.008,5.995-13,8.999-22.011,8.999c-8.002,0-14.994-3.004-21.002-8.999
			c-5.995-6.007-8.987-13-8.987-21.002V488c0-42.004-15.006-78-45.007-107.004c-30.001-30.001-65-45.007-107.004-45.007
			c-40.995,0-76.991,15.006-107.004,45.007c-29.989,30.001-44.995,65-44.995,107.004v303.998c0,8.999-2.992,15.992-8.999,21.999
			c-6.007,5.995-13,8.999-21.002,8.999c-8.999,0-16.004-3.004-21.999-8.999c-5.995-6.007-8.999-13-8.999-21.002V488.998
			c0-42.004-13.997-78-43.998-107.004c-30.001-30.001-66.009-44.995-107.004-44.995c-42.004,0-78,14.994-107.989,44.995
			c-29.004,30.001-44.01,65-44.01,107.004V787.001z M2602.005,543.989c0,59.005,20.99,109.01,62.994,150.005
			c41.007,42.004,91,63.006,150.005,63.006s108.998-21.002,150.005-62.008c42.004-40.994,61.996-91,61.996-149.993
			c0-59.005-19.993-108.998-61.996-150.005c-41.007-41.992-91-61.996-150.005-61.996s-108.998,21.002-150.005,62.994
			c-42.004,42.004-62.994,92.009-62.994,150.005V543.989z M2602.005,1021.998c0,8.999-3.004,15.992-8.999,21.999
			c-6.007,4.998-13,8.002-21.002,8.002c-8.999,0-16.004-3.004-21.999-8.002c-5.995-6.007-8.002-13-8.002-21.999V544.999
			c0-75.008,26-139.996,80.006-193.006c52.985-52.997,117-79.995,192.994-79.995c75.009,0,140.009,26.997,192.994,79.995
			c54.007,53.009,80.007,117.997,80.007,193.006c0,75.994-26,139.996-80.007,192.994c-52.985,52.997-117.985,80.006-192.994,80.006
			c-75.993,0-140.008-27.009-192.994-80.006l-20.005-18.995V1021.998z M3170.005,65.993c0-8.002,3.004-16.004,8.999-21.002
			c5.995-5.995,13-8.999,21.002-8.999c8.999,0,15.992,3.004,21.999,8.999c5.995,6.007,8.999,13,8.999,21.002V757h49.994
			c9.011,0,16.004,2.992,22.011,8.999c5.995,5.995,8.987,13,8.987,21.999s-2.992,15.992-8.987,21.999
			c-6.007,5.995-13,8.999-22.011,8.999h-80.992c-8.002,0-15.007-3.004-21.002-8.999c-5.995-6.007-8.999-13-8.999-21.002V65.993z
			 M3886.002,514c-8.999-48.011-30.001-89.006-60.999-120.004C3783,351.993,3733.006,332,3674.001,332
			c-57.995,0-108.001,21.002-149.993,62.994c-30.998,30.998-52,70.995-62.008,120.004L3886.002,514z M3830.001,699.989
			c8.999,0,16.004,3.004,21.999,9.011c5.01,5.995,8.002,13,8.002,21.999c0,7.99-2.006,14.994-7.005,20.99
			c-50.991,44.01-110.993,66.009-178.996,66.009c-74.996,0-139.996-27.009-193.006-80.006
			c-52.985-52.997-79.995-117.997-79.995-192.994c0-75.008,27.009-139.996,79.995-193.006
			c53.009-52.997,118.009-79.995,193.006-79.995c76.006,0,139.996,26.997,194.003,79.995
			c52.997,53.009,80.006,117.997,80.006,193.006c0,8.999-3.004,15.992-9.011,21.999c-5.995,5.995-13,8.999-21.999,8.999h-455
			c10.008,48.996,31.01,88.994,62.008,120.004c41.992,41.992,91.997,62.994,149.993,62.994c27.009,0,52-4.001,74.996-13
			c22.011-8.999,43.013-21.002,61.996-36.994c6.007-4.001,12.015-7.005,19.007-7.005V699.989z M4137.003,766.996
			c0,13.997-4.998,26-14.994,35.996c-9.011,10.008-21.002,15.006-36.009,15.006c-13.997,0-26-4.998-35.996-15.006
			c-8.999-9.996-13.997-21.999-13.997-35.996c0-13.997,4.998-26,13.997-35.996c9.996-10.008,21.999-15.006,35.996-15.006
			c15.007,0,26.997,4.998,36.009,15.006C4132.005,739.999,4137.003,751.989,4137.003,766.996z M4652.006,698.992
			c8.001,0,14.994,3.004,21.001,8.999c5.996,6.007,8.987,13,8.987,21.999s-2.992,16.004-8.987,21.999
			c-25.002,21.002-52,37.006-82.998,49.008c-30.013,10.994-62.008,17.001-95.013,17.001c-75.994,0-139.997-27.009-193.991-80.006
			c-53.009-52.997-79.994-117.997-79.994-192.994c0-75.008,26.985-139.996,79.994-193.006
			c53.995-52.997,117.998-79.995,193.991-79.995c33.004,0,65,5.995,95.998,17.001c30.013,10.994,57.01,27.994,82.013,48.996
			c3.004,3.004,4.999,7.005,6.993,10.994c3.004,4.013,4.001,9.011,4.001,13c0,8.002-2.992,16.004-8.999,21.002
			c-6.007,6.007-13,9.011-21.999,9.011c-7.005,0-13.997-2.006-18.996-7.005c-40.009-34.999-86.001-52-139.011-52
			c-58.993,0-108.999,21.002-151.002,62.994c-40.995,41.007-61.997,91-61.997,150.005s21.002,108.998,61.997,150.005
			c42.003,41.992,92.009,62.994,151.002,62.994c25.015,0,50.005-4.998,74.011-13.997c23.994-8.999,45.993-21.999,65-38.003
			c4.999-4.001,10.994-5.995,17.999-5.995V698.992z M5315.006,543.989c0,76.006-27.009,140.008-79.994,193.006
			c-54.007,52.997-118.009,79.995-193.006,79.995c-76.005,0-139.996-26.997-194.003-79.995
			c-52.997-52.997-80.006-117.997-80.006-193.006c0-74.996,27.009-139.996,80.006-192.994
			c54.007-52.997,117.998-80.007,194.003-80.007c74.997,0,138.999,27.009,193.006,80.007
			C5287.997,403.993,5315.006,468.993,5315.006,543.989z M5042.006,330.991c-59.004,0-108.998,21.002-151.002,63.006
			C4849,436,4829.008,485.994,4829.008,543.989c0,59.005,19.993,109.01,61.996,150.005c42.004,42.004,91.998,63.006,151.002,63.006
			c57.996,0,107.989-21.002,149.993-62.008c41.006-40.994,61.997-91,61.997-149.993c0-59.005-20.99-108.998-61.997-150.005
			c-42.003-41.992-91.997-61.996-149.993-61.996V330.991z M5451.999,787.001c0,8.999-3.003,15.992-8.987,21.999
			c-6.007,5.995-13,8.999-22.011,8.999c-8.002,0-14.994-3.004-21.002-8.999c-5.995-6.007-8.987-13-8.987-21.002V301.999
			c0-8.002,2.992-16.004,8.987-21.002c6.008-5.995,13-8.999,21.002-8.999c9.011,0,16.004,3.004,22.011,8.999
			c5.983,5.995,8.987,13,8.987,21.999v32.993c48.997-41.992,100.011-62.994,152.011-62.994c57.996,0,107.989,21.002,149.993,62.994
			c9.997,10.008,21.002,23.008,32.008,38.003c10.993-14.994,20.99-27.994,31.995-38.003c41.992-41.992,91.998-61.996,150.005-61.996
			c58.993,0,108.998,21.002,150.99,63.006c41.006,40.994,62.008,91.997,62.008,149.993V790.99c0,9.011-3.003,16.004-9.011,22.011
			c-5.995,5.995-13,8.999-21.987,8.999c-8.002,0-15.006-3.004-21.002-8.999c-6.007-6.007-9.011-13-9.011-21.002V488
			c0-42.004-14.994-78-44.995-107.004c-30.001-30.001-65-45.007-106.992-45.007c-41.007,0-77.015,15.006-107.004,45.007
			c-30.001,30.001-45.007,65-45.007,107.004v303.998c0,8.999-3.004,15.992-8.999,21.999c-5.996,5.995-12.988,8.999-20.99,8.999
			c-9.011,0-16.004-3.004-22.011-8.999c-5.996-6.007-8.987-13-8.987-21.002V488.998c0-42.004-14.009-78-44.01-107.004
			c-30.001-30.001-65.997-44.995-106.992-44.995c-42.003,0-78,14.994-108.013,44.995c-29.989,30.001-43.999,65-43.999,107.004
			V787.001z"/>
	</g>
</a>
<path fill="#00215B" d="M3202.512,1659.413c-31.198-19.559-87.079-9.314-108.349-28.873c-21.266-19.557-4.029-46.413-0.462-63.794
	c3.571-17.387-14.743-21.27-14.727-31.51c0.015-10.249,9.915-9.624,9.292-12.73c-0.619-3.105-5.896-2.483-11.795-7.759
	c-5.896-5.28-0.62-15.214,2.503-30.733c3.121-15.525-8.709-19.249-28.579-21.735c-19.869-2.483-26.078-16.761-20.489-29.179
	c5.586-12.42,31.509-66.593,44.082-98.261c12.574-31.665-2.328-34.924-2.328-53.085c0-18.163,3.723-40.515,20.729-81.15l0.018,0.006
	c28.271-78.317,98.719-135.684,187.327-156.753c-61.856,75.946-62.159,184.257,22.018,264.001
	c124.156,117.625,163.49,240.974,171.853,450.587H3248.46C3248.46,1758.445,3233.714,1678.973,3202.512,1659.413"/>
<path fill="#57C2D3" d="M3426.385,998.155c91.778,0,166.183,74.404,166.183,166.183c0,42.359-15.873,80.99-41.959,110.343
	c6.865,8.057,11.034,18.491,11.034,29.914c0,25.501-20.669,46.174-46.172,46.174c-18.675,0-34.721-11.109-41.995-27.06
	c-14.935,4.405-30.727,6.811-47.091,6.811c-91.778,0-166.181-74.403-166.181-166.182S3334.606,998.155,3426.385,998.155"/>
<path fill="#57C2D3" d="M3553.868,1351.228c22.65-3.714,41.955,15.591,38.237,38.243c-2.248,13.714-13.313,24.777-27.026,27.027
	c-22.651,3.713-41.956-15.592-38.242-38.239C3529.091,1364.541,3540.149,1353.479,3553.868,1351.228"/>
<path fill="#57C2D3" d="M3534.424,1436.244c13.834,0,25.049,11.215,25.049,25.05c0,13.833-11.215,25.049-25.049,25.049
	s-25.05-11.216-25.05-25.049C3509.374,1447.459,3520.59,1436.244,3534.424,1436.244"/>
<path fill="#00215B" d="M1905.89,1650.679c31.55-19.778,88.062-9.419,109.57-29.197c21.506-19.779,4.075-46.938,0.467-64.515
	c-3.611-17.583,14.91-21.51,14.892-31.866c-0.014-10.364-10.026-9.732-9.396-12.874c0.626-3.14,5.962-2.511,11.928-7.846
	c5.963-5.34,0.628-15.386-2.532-31.081c-3.155-15.7,8.809-19.465,28.904-21.979c20.092-2.51,26.371-16.95,20.719-29.508
	c-5.648-12.561-31.863-67.344-44.579-99.369c-12.716-32.022,2.354-35.317,2.354-53.684c0-18.368-3.764-40.971-20.962-82.065
	l-0.018,0.007c-28.59-79.202-99.833-137.215-189.44-158.523c62.554,76.803,62.86,186.336-22.266,266.979
	c-125.557,118.952-165.335,243.692-173.791,455.669h227.683C1859.422,1750.827,1874.335,1670.459,1905.89,1650.679"/>
<path fill="#57C2D3" d="M1679.491,981.963c-92.813,0-168.057,75.243-168.057,168.057c0,42.836,16.052,81.904,42.433,111.587
	c-6.943,8.148-11.159,18.701-11.159,30.253c0,25.788,20.901,46.693,46.693,46.693c18.885,0,35.111-11.233,42.469-27.364
	c15.103,4.455,31.073,6.887,47.621,6.887c92.814,0,168.056-75.243,168.056-168.057
	C1847.547,1057.205,1772.305,981.963,1679.491,981.963"/>
<path fill="#57C2D3" d="M1550.57,1339.018c-22.906-3.756-42.428,15.766-38.669,38.674c2.274,13.868,13.462,25.056,27.331,27.333
	c22.908,3.754,42.43-15.769,38.674-38.672C1575.627,1352.48,1564.444,1341.294,1550.57,1339.018"/>
<path fill="#57C2D3" d="M1570.234,1424.992c-13.991,0-25.332,11.342-25.332,25.332s11.341,25.332,25.332,25.332
	c13.99,0,25.332-11.342,25.332-25.332S1584.224,1424.992,1570.234,1424.992"/>
</svg>
