<?xml version="1.0" encoding="utf-8"?>
<!-- Generator: Adobe Illustrator 16.0.3, SVG Export Plug-In . SVG Version: 6.00 Build 0)  -->
<!DOCTYPE svg PUBLIC "-//W3C//DTD SVG 1.1//EN" "http://www.w3.org/Graphics/SVG/1.1/DTD/svg11.dtd">
<svg version="1.1" id="Capa_1" xmlns="http://www.w3.org/2000/svg" xmlns:xlink="http://www.w3.org/1999/xlink" x="0px" y="0px"
	 width="2200px" height="1457px" viewBox="0 0 2200 1457" enable-background="new 0 0 2200 1457" xml:space="preserve">
<rect x="1" fill="#45A0C9" width="2200" height="1457"/>
<path fill="#14225B" d="M1789.486,1056.89c34.587-21.678,96.536-10.323,120.115-32.005c23.576-21.682,4.468-51.454,0.513-70.724
	c-3.96-19.275,16.344-23.58,16.325-34.932c-0.016-11.361-10.992-10.669-10.301-14.112c0.688-3.442,6.536-2.754,13.076-8.603
	c6.536-5.853,0.688-16.865-2.775-34.071c-3.459-17.21,9.655-21.339,31.685-24.096c22.025-2.751,28.908-18.581,22.713-32.347
	c-6.193-13.77-34.931-73.825-48.87-108.932c-13.938-35.104,2.581-38.716,2.581-58.85c0-20.136-4.127-44.914-22.979-89.963
	l-0.02,0.007c-31.341-86.823-109.44-150.42-207.672-173.778c68.574,84.195,68.91,204.269-24.408,292.672
	c-137.64,130.4-181.246,267.144-190.516,499.522h249.595C1738.548,1166.679,1754.896,1078.576,1789.486,1056.89"/>
<path fill="#55B9CD" d="M1541.301,323.821c-101.746,0-184.229,82.484-184.229,184.23c0,46.958,17.597,89.786,46.516,122.326
	c-7.611,8.932-12.232,20.5-12.232,33.165c0,28.27,22.912,51.187,51.187,51.187c20.702,0,38.489-12.315,46.555-29.998
	c16.557,4.883,34.064,7.55,52.205,7.55c101.746,0,184.228-82.484,184.228-184.229S1643.047,323.821,1541.301,323.821"/>
<path fill="#55B9CD" d="M1399.974,715.238c-25.111-4.117-46.513,17.284-42.392,42.396c2.494,15.203,14.759,27.469,29.962,29.963
	c25.111,4.115,46.514-17.285,42.396-42.392C1427.441,729.996,1415.182,717.733,1399.974,715.238"/>
<path fill="#55B9CD" d="M1421.528,809.487c-15.337,0-27.769,12.432-27.769,27.769s12.432,27.771,27.769,27.771
	s27.771-12.434,27.771-27.771S1436.865,809.487,1421.528,809.487"/>
</svg>
